<svg xmlns:svg="http://www.w3.org/2000/svg" xmlns="http://www.w3.org/2000/svg" width="484.9" height="475.9" version="1.1"><g transform="translate(-189.89118,-207.8812)"><path d="m642.6 240.8-42.4 0.5-30.3-29.6-0.5-42.4 29.6-30.3 42.4-0.5 30.3 29.6 0.5 42.4z" transform="matrix(4.571396,0,0,4.4838431,-2405.7995,-405.37159)" style="fill:#007800;stroke-width:3.3;stroke:#fff"/><path d="m625.3 441c-7.7-30.5-27.2-55.3-54.1-68.9-8-4.1-165.1-59.8-168.4-59.8-2.9 0-4.1 2.3-4.7 9.1-1.5 16.1 7.3 33.3 21.1 41.4 2.3 1.4 12.6 5.4 22.7 8.9 25.5 8.8 25.8 9 25.8 11.9 0 5.4 3.2 5.2-84.9 4.8-59.1-0.3-82.8 0-85.9 0.8-4.7 1.3-10.6 5.9-12.6 10-4.8 9.5-0.9 21.3 8.4 26.1 3.8 1.9 6 2 67.8 2 62.7 0 63.9 0 65.7 2 1.5 1.7 1.6 2.4 0.7 4.5l-1.1 2.5-77.8 0.3c-76.7 0.3-77.8 0.3-81.8 2.4-9.2 4.8-13 16.4-8.3 25.4 1.3 2.4 4 5.8 6.2 7.5l3.8 3.1 77.3 0.3c75.6 0.3 77.3 0.3 79.1 2.3 1.5 1.6 1.6 2.4 0.7 4.5l-1.1 2.5-64.8 0c-60.9 0-65 0.1-68.8 1.9-14.2 6.6-15.9 25-3.1 33.9l3.9 2.7 69 0.3c48.4 0.2 69.4 0.6 70.3 1.4 1.7 1.4 1.7 5.1 0.1 6.7-0.9 0.9-12 1.2-43.7 1.2-41.2 0-42.6 0.1-46.9 2.1-12 5.8-13 22.4-1.9 29.7l4 2.7 98.1-0.3c62.4-0.2 100.3-0.6 104.1-1.3 32.4-5.6 60.4-27.1 74.5-57.2 9.9-21.1 12.2-44.8 6.5-67.1z" style="fill:#fff;stroke-linejoin:round;stroke-width:8;stroke:#003200"/></g></svg>